<svg xmlns="http://www.w3.org/2000/svg" width="840" height="480" viewBox="0 0 840 480">
<rect width="100%" height="100%" fill="#0b1220"/>
<g font-family="Inter,Segoe UI,Arial" fill="#e5e7eb" font-size="16">
  <text x="40" y="40" font-size="24" fill="#60a5fa">Smart Production — High-level Architecture</text>
  <rect x="60" y="80" width="720" height="320" rx="14" fill="#111827" stroke="#1f2937"/>
  <rect x="100" y="120" width="180" height="80" rx="12" fill="#0f172a" stroke="#1f2937"/>
  <text x="120" y="165">Planner Agent</text>
  <rect x="330" y="120" width="180" height="80" rx="12" fill="#0f172a" stroke="#1f2937"/>
  <text x="350" y="165">Controller Agent</text>
  <rect x="560" y="120" width="180" height="80" rx="12" fill="#0f172a" stroke="#1f2937"/>
  <text x="600" y="165">Robot Agent</text>

  <rect x="260" y="230" width="320" height="80" rx="14" fill="#0b3d68" stroke="#1f2937"/>
  <text x="340" y="277" fill="#e5e7eb">Orchestrator (GEORGE)</text>

  <rect x="320" y="340" width="200" height="40" rx="10" fill="#111827" stroke="#1f2937"/>
  <text x="370" y="366">AWS (Lambda • EKS • IoT)</text>

  <path d="M190 200 L320 230" stroke="#22d3ee" stroke-width="2" fill="none"/>
  <path d="M420 200 L420 230" stroke="#22d3ee" stroke-width="2" fill="none"/>
  <path d="M650 200 L580 230" stroke="#22d3ee" stroke-width="2" fill="none"/>
  <path d="M420 310 L420 340" stroke="#22d3ee" stroke-width="2" fill="none"/>
</g>
</svg>
